<?xml version="1.0" encoding="UTF-8" standalone="no"?>
<svg xmlns:dc="http://purl.org/dc/elements/1.1/" xmlns:cc="http://creativecommons.org/ns#" xmlns:rdf="http://www.w3.org/1999/02/22-rdf-syntax-ns#" xmlns:svg="http://www.w3.org/2000/svg" xmlns="http://www.w3.org/2000/svg" xmlns:sodipodi="http://sodipodi.sourceforge.net/DTD/sodipodi-0.dtd" xmlns:inkscape="http://www.inkscape.org/namespaces/inkscape" version="1.1" id="svg2" xml:space="preserve" width="1600" height="1600" viewBox="0 0 1600 1600" sodipodi:docname="illust58-6517-01.eps">
  <metadata id="metadata8">
    <rdf:RDF>
      <cc:Work rdf:about="">
        <dc:format>image/svg+xml</dc:format>
        <dc:type rdf:resource="http://purl.org/dc/dcmitype/StillImage" />
      </cc:Work>
    </rdf:RDF>
  </metadata>
  <defs id="defs6" />
  <sodipodi:namedview pagecolor="#ffffff" bordercolor="#666666" borderopacity="1" objecttolerance="10" gridtolerance="10" guidetolerance="10" inkscape:pageopacity="0" inkscape:pageshadow="2" inkscape:window-width="640" inkscape:window-height="480" id="namedview4" />
  <g id="g10" inkscape:groupmode="layer" inkscape:label="ink_ext_XXXXXX" transform="matrix(1.3333333,0,0,-1.3333333,0,1600)">
    <g id="g12" transform="scale(0.1)">
      <path d="m 5983.79,7472.58 c -215.05,0 -390.76,-78.9 -527.23,-236.62 -136.45,-157.82 -204.68,-353.32 -204.68,-586.71 0,-233.4 68.23,-428.99 204.68,-586.72 136.47,-157.81 312.18,-236.62 527.23,-236.62 214.97,0 390.78,78.81 527.24,236.62 136.45,157.73 204.69,353.32 204.69,586.72 0,233.39 -68.24,428.89 -204.69,586.71 -136.46,157.72 -312.27,236.62 -527.24,236.62" style="fill:#ffffff;fill-opacity:1;fill-rule:nonzero;stroke:none" id="path14" />
      <path d="m 6811.88,4257.58 c 21.35,98.97 44.08,179.96 68.12,242.97 69.42,71.97 281.75,247.44 637.01,526.41 218.97,173.21 328.52,314.94 328.52,425.2 0,148.48 -104.16,222.71 -312.5,222.71 -205.7,0 -328.52,-100.12 -368.59,-300.32 l -236.37,50.61 c 18.66,143.94 85.44,255.3 200.32,334.08 106.79,74.24 243.01,111.35 408.66,111.35 162.87,0 297.78,-40.49 404.63,-121.48 106.81,-80.98 160.27,-183.38 160.27,-307.07 0,-110.26 -69.49,-235.12 -208.34,-374.58 -85.51,-83.26 -228.36,-199.1 -428.68,-347.57 -178.98,-132.76 -288.46,-223.87 -328.53,-273.34 h 893.1 c -37.38,-58.6 -68.99,-121.89 -93.95,-188.97 z m -828.09,1224.73 c -322.53,0 -589.25,112.34 -800.14,337.12 -210.9,224.67 -316.35,501.32 -316.35,829.82 0,328.4 105.45,606.16 316.35,833.06 210.89,226.91 477.61,340.36 800.14,340.36 322.55,0 589.26,-113.45 800.16,-340.36 210.89,-226.9 316.34,-504.66 316.34,-833.06 0,-328.5 -105.45,-605.15 -316.34,-829.82 -210.9,-224.78 -477.61,-337.12 -800.16,-337.12 z m -2679.48,564.02 c 128.14,-151.34 297.73,-226.9 508.63,-226.9 206.72,0 407.25,62.6 601.66,188 l 136.46,-337.11 c -198.49,-129.66 -440.39,-194.5 -725.72,-194.5 -334.95,0 -603.79,109.1 -806.34,327.4 -202.66,218.19 -303.95,500.21 -303.95,846.03 0,350.08 101.29,633.1 303.95,849.27 202.55,216.07 471.39,324.15 806.34,324.15 281.17,0 523.06,-64.83 725.72,-194.49 L 4414.6,7291.06 c -194.41,125.31 -394.94,188.01 -601.66,188.01 -210.9,0 -380.49,-76.79 -508.63,-230.14 -128.21,-153.47 -192.28,-353.33 -192.28,-599.68 0,-250.7 64.07,-451.68 192.28,-602.92 z m 6326.97,958.84 c -198.48,855.96 -974.76,1524.38 -1943.8,1632.95 -387.56,578.48 -1075.09,973.34 -1867.94,995.02 -863.37,23.62 -1623.7,-401.31 -2017.56,-1044.57 -85.56,11.43 -172.51,19 -260.96,21.42 -1243.85,34.02 -2274.62,-862.51 -2302.28,-2002.47 -13.64,-562.42 219.75,-1078.76 608.8,-1461.93 -90.19,-187.55 -143.03,-395.74 -148.38,-616.11 -20.81,-857.82 681.6,-1572.91 1568.89,-1597.18 375.28,-10.27 723.25,105.04 1001.77,306.04 390.39,-565.28 1070.05,-949.28 1851.81,-970.67 832.81,-22.78 1569.57,371.81 1974.02,977.16 162.37,-198.87 398.34,-324.15 661.13,-324.15 489.68,0 886.64,434.66 886.64,970.84 0,80.46 -9.1,158.56 -25.95,233.31 641.33,280.6 1075.93,796.44 1090.53,1397.77 15,618.89 -418.6,1171.68 -1076.72,1482.57" style="fill:#ffffff;fill-opacity:1;fill-rule:nonzero;stroke:none" id="path16" />
    </g>
  </g>
</svg>